<svg width="44" height="44" viewBox="0 0 44 44" fill="none" xmlns="http://www.w3.org/2000/svg">
<path d="M0 22C0 34.1503 9.96041 44 22.2472 44V22V0C9.96041 0 0 9.84974 0 22Z" fill="#CE5630"/>
<path d="M44 22C44 34.1503 34.0396 44 21.7528 44V22V0C34.0396 0 44 9.84974 44 22Z" fill="#D86A2C"/>
<path d="M14.8315 22C14.8315 26.0501 18.1516 29.3333 22.2472 29.3333V14.6667C18.1516 14.6667 14.8315 17.9499 14.8315 22Z" fill="#A8A4A4"/>
<path d="M29.1685 22C29.1685 26.0501 25.8484 29.3333 21.7528 29.3333V14.6667C25.8484 14.6667 29.1685 17.9499 29.1685 22Z" fill="#BCB9B9"/>
<ellipse cx="22" cy="22.2445" rx="3.70786" ry="3.66667" fill="#DCDBDB"/>
<ellipse cx="33.1236" cy="13.6889" rx="3.46067" ry="4.88889" fill="#DCDBDB"/>
<line x1="33.1292" y1="18.5778" x2="33.1292" y2="32.2667" stroke="#DCDBDB"/>
<ellipse cx="10.382" cy="13.6889" rx="3.46067" ry="4.88889" fill="#DCDBDB"/>
<line x1="10.3876" y1="18.5778" x2="10.3876" y2="32.2667" stroke="#DCDBDB"/>
<path d="M8.89888 5.86667L8.89887 14.6667" stroke="#9E2020" stroke-width="0.5"/>
<path d="M11.8652 8.79999L11.8652 14.6667" stroke="#9E2020" stroke-width="0.5"/>
</svg>
